<svg width="1440" height="51" viewBox="0 0 1440 51" fill="none" xmlns="http://www.w3.org/2000/svg">
<rect x="-14" width="1465" height="51" fill="#FFFF00"/>
<path fill-rule="evenodd" clip-rule="evenodd" d="M1426 0H-14V10.1436H65.7715L72.649 1.05964L72.6633 1.0831L72.6805 1.05964L84.6565 18.0599H94.3472L100.087 10.2609H308.498V10.2579L376.7 10.2191L378.246 8.12734L375.755 4.74749H380.747L378.246 8.12734L379.82 10.2609H382.702L389.491 1.05964L389.5 1.07086L389.505 1.05964L407.543 25.5059L417.114 12.5495L540.985 12.5107L543.153 15.4459L549.64 6.65057L553.967 12.5107L609.664 12.5495L615.092 5.19318H640.317L649.811 18.0599H653.568L677.003 17.9201L681.627 24.1872L688.562 14.7851L692.082 9.99779H753.367L755.846 6.64649L751.724 1.05964H759.977L755.846 6.64649L758.319 9.99779H867.522L874.399 1.05964L874.413 1.0831L874.43 1.05964L886.406 18.0599H896.097L901.836 10.2609H1110.25V10.2364L1140.95 10.2191L1142.5 8.12734L1140.01 4.74749H1145L1142.5 8.12734L1144.07 10.2609H1146.95L1153.74 1.05964L1153.75 1.07086L1153.76 1.05964L1171.79 25.5059L1181.36 12.5495L1267.73 12.5107L1269.9 15.4459L1276.39 6.65057L1280.72 12.5107L1336.41 12.5495L1341.84 5.19318H1367.07L1376.56 18.0599H1380.32L1403.75 17.9201L1408.38 24.1872L1415.31 14.7851L1418.83 10.1253H1426V0ZM25.0202 6.34053H21.1233V1.05964H25.0202V6.34053ZM38.02 6.34053H36.7217V1.05964H38.02V6.34053ZM47.1115 6.34053H45.8132V1.05964H47.1115V6.34053ZM49.0825 6.34053H47.782V1.05964H49.0825V6.34053ZM653.487 12.9789H652.187V11.2196H653.487V12.9789ZM653.487 9.45725H652.187V7.69798H653.487V9.45725ZM663.564 12.9789H662.262V7.69798H663.564V12.9789ZM668.544 12.9789H667.243V11.2196H668.544V12.9789ZM826.77 6.34053H822.873V1.05964H826.77V6.34053ZM839.77 6.34053H838.472V1.05964H839.77V6.34053ZM848.862 6.34053H847.564V1.05964H848.862V6.34053ZM850.833 6.34053H849.532V1.05964H850.833V6.34053ZM1380.24 12.9789H1378.94V11.2196H1380.24V12.9789ZM1380.24 9.45725H1378.94V7.69798H1380.24V9.45725ZM1390.31 12.9789H1389.01V7.69798H1390.31V12.9789ZM1395.29 12.9789H1393.99V11.2196H1395.29V12.9789ZM546.231 19.606L543.153 15.4459L540.083 19.606H546.231ZM753.347 10.0253H758.339L758.319 9.99779H753.367L753.347 10.0253ZM1272.98 19.606L1269.9 15.4459L1266.83 19.606H1272.98Z" fill="#231D28"/>
</svg>
