<svg width="1440" height="766" viewBox="0 0 1440 766" fill="none" xmlns="http://www.w3.org/2000/svg">
<g style="mix-blend-mode:multiply" opacity="0.3">
<path d="M919 10V355.5L1015 451.5V764.5H1136H1287.5V723H1439" stroke="#2FB2FF" stroke-width="2" stroke-linecap="round"/>
</g>
<g style="mix-blend-mode:multiply" opacity="0.3">
<path d="M-1 111C-1.55228 111 -2 110.552 -2 110C-2 109.448 -1.55228 109 -1 109L-1 111ZM284.5 110L284.5 109L284.871 109L285.152 109.242L284.5 110ZM570.5 356L570.5 357L570.129 357L569.848 356.758L570.5 356ZM1083 355L1084 355L1084 357L1083 357L1083 355ZM-1 109L284.5 109L284.5 111L-1 111L-1 109ZM285.152 109.242L571.152 355.242L569.848 356.758L283.848 110.758L285.152 109.242ZM570.5 355L1083 355L1083 357L570.5 357L570.5 355Z" fill="#2FB2FF"/>
</g>
<g style="mix-blend-mode:multiply" opacity="0.3">
<path d="M1083 511C1083.55 511 1084 510.552 1084 510C1084 509.448 1083.55 509 1083 509L1083 511ZM797.5 510L797.5 509L797.129 509L796.848 509.242L797.5 510ZM511.5 756L511.5 757L511.871 757L512.152 756.758L511.5 756ZM-1.00001 755L-2.00001 755L-2.00001 757L-1.00001 757L-1.00001 755ZM1083 509L797.5 509L797.5 511L1083 511L1083 509ZM796.848 509.242L510.848 755.242L512.152 756.758L798.152 510.758L796.848 509.242ZM511.5 755L-1.00001 755L-1.00001 757L511.5 757L511.5 755Z" fill="#2FB2FF"/>
</g>
<g style="mix-blend-mode:multiply" opacity="0.3">
<path d="M1440.5 159.5C1441.05 159.5 1441.5 159.052 1441.5 158.5C1441.5 157.948 1441.05 157.5 1440.5 157.5V159.5ZM1149.5 158.5V157.5H1148.5V158.5H1149.5ZM1149.5 410H1148.5V410.449L1148.84 410.748L1149.5 410ZM1239 489.5H1240V489.051L1239.66 488.752L1239 489.5ZM1238 762.5V763.5H1240V762.5H1238ZM1440.5 157.5H1149.5V159.5H1440.5V157.5ZM1148.5 158.5V410H1150.5V158.5H1148.5ZM1148.84 410.748L1238.34 490.248L1239.66 488.752L1150.16 409.252L1148.84 410.748ZM1238 489.5V762.5H1240V489.5H1238Z" fill="#2FB2FF"/>
</g>
<rect x="99" y="343" width="8" height="8" fill="#FF003C"/>
<rect x="911" y="416" width="8" height="8" fill="#FF003C"/>
<rect x="733" y="635" width="8" height="8" fill="#FF003C"/>
<rect x="819" y="253" width="8" height="8" fill="#FF003C"/>
<rect x="239" y="723" width="8" height="8" fill="#FF003C"/>
<rect x="1315" y="383" width="8" height="8" fill="#FF003C"/>
<rect x="59" y="597" width="8" height="8" fill="#FF003C"/>
<rect x="1081" y="617" width="8" height="8" fill="#FF003C"/>
<rect x="741" y="30" width="8" height="8" fill="#FF003C"/>
<rect x="22" y="101" width="8" height="8" fill="#FF003C"/>
<rect x="1422" y="139" width="18" height="20.25" fill="#FF003C"/>
<rect x="1086" y="296" width="18" height="20.25" fill="#FF003C"/>
<rect x="1037" y="731" width="8" height="8" fill="#FF003C"/>
<path fill-rule="evenodd" clip-rule="evenodd" d="M1440 0H0V10.7378H79.7715L86.649 1.12172L86.6633 1.14655L86.6805 1.12172L98.6565 19.1178H108.347L114.087 10.862H322.498V10.8587L390.7 10.8177L392.246 8.60342L389.755 5.02559H394.747L392.246 8.60342L393.82 10.862H396.702L403.491 1.12172L403.5 1.13359L403.505 1.12172L421.543 27L431.114 13.2846L554.985 13.2436L557.153 16.3507L563.64 7.04015L567.967 13.2436L623.664 13.2846L629.092 5.49738H654.317L663.811 19.1178H667.568L691.003 18.9699L695.627 25.6041L702.562 15.6511L706.082 10.5834H767.367L769.846 7.03583L765.724 1.12172H773.977L769.846 7.03583L772.319 10.5834H881.522L888.399 1.12172L888.413 1.14655L888.43 1.12172L900.406 19.1178H910.097L915.836 10.862H1124.25V10.8361L1154.95 10.8177L1156.5 8.60342L1154.01 5.02559H1159L1156.5 8.60342L1158.07 10.862H1160.95L1167.74 1.12172L1167.75 1.13359L1167.76 1.12172L1185.79 27L1195.36 13.2846L1281.73 13.2436L1283.9 16.3507L1290.39 7.04015L1294.72 13.2436L1350.41 13.2846L1355.84 5.49738H1381.07L1390.56 19.1178H1394.32L1417.75 18.9699L1422.38 25.6041L1429.31 15.6511L1432.83 10.7184H1440V0ZM39.0202 6.71194H35.1233V1.12172H39.0202V6.71194ZM52.02 6.71194H50.7217V1.12172H52.02V6.71194ZM61.1115 6.71194H59.8132V1.12172H61.1115V6.71194ZM63.0825 6.71194H61.782V1.12172H63.0825V6.71194ZM667.487 13.7391H666.187V11.8768H667.487V13.7391ZM667.487 10.0112H666.187V8.14891H667.487V10.0112ZM677.564 13.7391H676.262V8.14891H677.564V13.7391ZM682.544 13.7391H681.243V11.8768H682.544V13.7391ZM840.77 6.71194H836.873V1.12172H840.77V6.71194ZM853.77 6.71194H852.472V1.12172H853.77V6.71194ZM862.862 6.71194H861.564V1.12172H862.862V6.71194ZM864.833 6.71194H863.532V1.12172H864.833V6.71194ZM1394.24 13.7391H1392.94V11.8768H1394.24V13.7391ZM1394.24 10.0112H1392.94V8.14891H1394.24V10.0112ZM1404.31 13.7391H1403.01V8.14891H1404.31V13.7391ZM1409.29 13.7391H1407.99V11.8768H1409.29V13.7391ZM560.231 20.7544L557.153 16.3507L554.083 20.7544H560.231ZM767.347 10.6126H772.339L772.319 10.5834H767.367L767.347 10.6126ZM1286.98 20.7544L1283.9 16.3507L1280.83 20.7544H1286.98Z" fill="#121211"/>
</svg>
