<svg width="295" height="77" viewBox="0 0 295 77" fill="none" xmlns="http://www.w3.org/2000/svg">
<path fill-rule="evenodd" clip-rule="evenodd" d="M291.968 0H291.089V3.60205L294.606 3.60205V4.50262H290.209L290.209 3.60226V0H0V25.2158H2.63826V27.9175H0V29.7186H1.75879V27.9177H2.63892V29.7188H2.63826V32.4202H0V59.3353L17.6119 77H135.612V69.7529H159.388V77H268.068L267.533 76.453L294.513 48.8252L295 49.3242V0H294.606V2.70169H291.968V0ZM295 53.4205L271.974 77H277.388L295 59.3353V53.4205ZM217.217 74.7471H218.097V76.5482H217.217V74.7471ZM221.614 72.0453H218.976V76.5481H221.614V72.0453ZM213.699 72.0453H216.337V76.5481H213.699V72.0453Z" fill="#FF003C"/>
</svg>
