<svg width="703" height="1024" viewBox="0 0 703 1024" fill="none" xmlns="http://www.w3.org/2000/svg">
<rect width="652" height="1024" fill="#FFFF00"/>
<rect x="703" y="-93" width="1465" height="51" transform="rotate(90 703 -93)" fill="#FFFF00"/>
<path fill-rule="evenodd" clip-rule="evenodd" d="M703 1347L703 -93L692.856 -93L692.856 -13.2285L701.94 -6.351L701.917 -6.33675L701.94 -6.3195L684.94 5.65651L684.94 15.3472L692.739 21.087L692.739 229.498L692.742 229.498L692.781 297.7L694.873 299.246L698.252 296.755L698.252 301.747L694.873 299.246L692.739 300.82L692.739 303.702L701.94 310.491L701.929 310.5L701.94 310.505L677.494 328.543L690.45 338.114L690.489 461.985L687.554 464.153L696.349 470.64L690.489 474.967L690.45 530.664L697.807 536.092L697.807 561.317L684.94 570.811L684.94 574.568L685.08 598.003L678.813 602.627L688.215 609.562L693.002 613.082L693.002 674.367L696.353 676.846L701.94 672.724L701.94 680.977L696.353 676.846L693.002 679.319L693.002 788.522L701.94 795.399L701.917 795.413L701.94 795.43L684.94 807.406L684.94 817.097L692.739 822.836L692.739 1031.25L692.764 1031.25L692.781 1061.95L694.873 1063.5L698.252 1061.01L698.252 1066L694.873 1063.5L692.739 1065.07L692.739 1067.95L701.94 1074.74L701.929 1074.75L701.94 1074.76L677.494 1092.79L690.45 1102.36L690.489 1188.73L687.554 1190.9L696.349 1197.39L690.489 1201.72L690.45 1257.41L697.807 1262.84L697.807 1288.07L684.94 1297.56L684.94 1301.32L685.08 1324.75L678.813 1329.38L688.215 1336.31L692.875 1339.83L692.875 1347L703 1347ZM696.659 -53.9798L696.659 -57.8767L701.94 -57.8767L701.94 -53.9798L696.659 -53.9798ZM696.659 -40.98L696.659 -42.2783L701.94 -42.2783L701.94 -40.98L696.659 -40.98ZM696.659 -31.8885L696.659 -33.1868L701.94 -33.1868L701.94 -31.8885L696.659 -31.8885ZM696.659 -29.9175L696.659 -31.218L701.94 -31.218L701.94 -29.9175L696.659 -29.9175ZM690.021 574.487L690.021 573.187L691.78 573.187L691.78 574.487L690.021 574.487ZM693.543 574.487L693.543 573.187L695.302 573.187L695.302 574.487L693.543 574.487ZM690.021 584.564L690.021 583.262L695.302 583.262L695.302 584.564L690.021 584.564ZM690.021 589.544L690.021 588.243L691.78 588.243L691.78 589.544L690.021 589.544ZM696.659 747.77L696.659 743.873L701.94 743.873L701.94 747.77L696.659 747.77ZM696.659 760.77L696.659 759.472L701.94 759.472L701.94 760.77L696.659 760.77ZM696.659 769.862L696.659 768.564L701.94 768.564L701.94 769.862L696.659 769.862ZM696.659 771.833L696.659 770.532L701.94 770.532L701.94 771.833L696.659 771.833ZM690.021 1301.24L690.021 1299.94L691.78 1299.94L691.78 1301.24L690.021 1301.24ZM693.543 1301.24L693.543 1299.94L695.302 1299.94L695.302 1301.24L693.543 1301.24ZM690.021 1311.31L690.021 1310.01L695.302 1310.01L695.302 1311.31L690.021 1311.31ZM690.021 1316.29L690.021 1314.99L691.78 1314.99L691.78 1316.29L690.021 1316.29ZM683.394 467.231L687.554 464.153L683.394 461.083L683.394 467.231ZM692.975 674.347L692.975 679.339L693.002 679.319L693.002 674.367L692.975 674.347ZM683.394 1193.98L687.554 1190.9L683.394 1187.83L683.394 1193.98Z" fill="#231D28"/>
</svg>
