<svg width="1440" height="584" viewBox="0 0 1440 584" fill="none" xmlns="http://www.w3.org/2000/svg">
<g style="mix-blend-mode:multiply" opacity="0.3">
<path d="M919 584.5V409L1015 313V0" stroke="#2FB2FF" stroke-width="2" stroke-linecap="round"/>
</g>
<g style="mix-blend-mode:multiply" opacity="0.3">
<path d="M-1 111C-1.55228 111 -2 110.552 -2 110C-2 109.448 -1.55228 109 -1 109L-1 111ZM284.5 110L284.5 109L284.871 109L285.152 109.242L284.5 110ZM570.5 356L570.5 357L570.129 357L569.848 356.758L570.5 356ZM1083 355L1084 355L1084 357L1083 357L1083 355ZM-1 109L284.5 109L284.5 111L-1 111L-1 109ZM285.152 109.242L571.152 355.242L569.848 356.758L283.848 110.758L285.152 109.242ZM570.5 355L1083 355L1083 357L570.5 357L570.5 355Z" fill="#2FB2FF"/>
</g>
<g style="mix-blend-mode:multiply" opacity="0.3">
<path d="M1.99999 -26C1.99999 -26.5523 1.55227 -27 0.999987 -27C0.447702 -27 -1.27442e-05 -26.5523 -1.272e-05 -26L1.99999 -26ZM1 265L0 265L4.37106e-08 266L1 266L1 265ZM603.5 265L603.5 266L603.914 266L604.207 265.707L603.5 265ZM743 125.5L743 124.5L742.586 124.5L742.293 124.793L743 125.5ZM1016 126.5L1017 126.5L1017 124.5L1016 124.5L1016 126.5ZM-1.272e-05 -26L0 265L2 265L1.99999 -26L-1.272e-05 -26ZM1 266L603.5 266L603.5 264L1 264L1 266ZM604.207 265.707L743.707 126.207L742.293 124.793L602.793 264.293L604.207 265.707ZM743 126.5L1016 126.5L1016 124.5L743 124.5L743 126.5Z" fill="#2FB2FF"/>
</g>
<rect x="99" y="343" width="8" height="8" fill="#FF003C"/>
<rect x="911" y="416" width="8" height="8" fill="#FF003C"/>
<rect x="725" y="532" width="8" height="8" fill="#FF003C"/>
<rect x="1315" y="383" width="8" height="8" fill="#FF003C"/>
<rect x="1083" y="112" width="8" height="8" fill="#FF003C"/>
<rect x="741" y="30" width="8" height="8" fill="#FF003C"/>
<rect x="22" y="101" width="8" height="8" fill="#FF003C"/>
<rect x="1422" y="139" width="18" height="20.25" fill="#FF003C"/>
<rect x="67" y="530" width="18" height="20.25" fill="#FF003C"/>
<path fill-rule="evenodd" clip-rule="evenodd" d="M1439 584H-1V573.262H78.7715L85.649 582.878L85.6633 582.853L85.6805 582.878L97.6565 564.882H107.347L113.087 573.138H321.498V573.141L389.7 573.182L391.246 575.397L388.755 578.974H393.747L391.246 575.397L392.82 573.138H395.702L402.491 582.878L402.5 582.866L402.505 582.878L420.543 557L430.114 570.715L553.985 570.756L556.153 567.649L562.64 576.96L566.967 570.756L622.664 570.715L628.092 578.503H653.317L662.811 564.882H666.568L690.003 565.03L694.627 558.396L701.562 568.349L705.082 573.417H766.367L768.846 576.964L764.724 582.878H772.977L768.846 576.964L771.319 573.417H880.522L887.399 582.878L887.413 582.853L887.43 582.878L899.406 564.882H909.097L914.836 573.138H1123.25V573.164L1153.95 573.182L1155.5 575.397L1153.01 578.974H1158L1155.5 575.397L1157.07 573.138H1159.95L1166.74 582.878L1166.75 582.866L1166.76 582.878L1184.79 557L1194.36 570.715L1280.73 570.756L1282.9 567.649L1289.39 576.96L1293.72 570.756L1349.41 570.715L1354.84 578.503H1380.07L1389.56 564.882H1393.32L1416.75 565.03L1421.38 558.396L1428.31 568.349L1431.83 573.282H1439V584ZM38.0202 577.288H34.1233V582.878H38.0202V577.288ZM51.02 577.288H49.7217V582.878H51.02V577.288ZM60.1115 577.288H58.8132V582.878H60.1115V577.288ZM62.0825 577.288H60.782V582.878H62.0825V577.288ZM666.487 570.261H665.187V572.123H666.487V570.261ZM666.487 573.989H665.187V575.851H666.487V573.989ZM676.564 570.261H675.262V575.851H676.564V570.261ZM681.544 570.261H680.243V572.123H681.544V570.261ZM839.77 577.288H835.873V582.878H839.77V577.288ZM852.77 577.288H851.472V582.878H852.77V577.288ZM861.862 577.288H860.564V582.878H861.862V577.288ZM863.833 577.288H862.532V582.878H863.833V577.288ZM1393.24 570.261H1391.94V572.123H1393.24V570.261ZM1393.24 573.989H1391.94V575.851H1393.24V573.989ZM1403.31 570.261H1402.01V575.851H1403.31V570.261ZM1408.29 570.261H1406.99V572.123H1408.29V570.261ZM559.231 563.246L556.153 567.649L553.083 563.246H559.231ZM766.347 573.387H771.339L771.319 573.417H766.367L766.347 573.387ZM1285.98 563.246L1282.9 567.649L1279.83 563.246H1285.98Z" fill="#121211"/>
</svg>
